<?xml version="1.0" encoding="iso-8859-1"?>
<!-- Uploaded to: SVG Repo, www.svgrepo.com, Generator: SVG Repo Mixer Tools -->
<svg height="800px" width="800px" version="1.1" id="Layer_1" xmlns="http://www.w3.org/2000/svg" xmlns:xlink="http://www.w3.org/1999/xlink" 
	 viewBox="0 0 512.001 512.001" xml:space="preserve">
<path style="fill:#FFCE00;" d="M456.978,106.57c4.353-4.351,4.353-11.476,0-15.83l-32.192-32.192c-4.356-4.353-11.478-4.353-15.83,0
	l-43.514,43.511c-4.353,4.353-4.353,11.479,0,15.83l32.193,32.194c4.353,4.353,11.476,4.353,15.829,0L456.978,106.57z"/>
<path style="opacity:0.2;enable-background:new    ;" d="M395.391,128.184c-2.059,0-4.119-0.785-5.69-2.356
	c-3.144-3.143-3.144-8.239-0.001-11.381l31.637-31.64c3.144-3.144,8.24-3.143,11.381-0.001c3.144,3.143,3.144,8.239,0.001,11.381
	l-31.637,31.64C399.51,127.399,397.45,128.184,395.391,128.184z"/>
<path style="opacity:0.2;enable-background:new    ;" d="M388.148,79.356l-22.704,22.704c-4.353,4.353-4.353,11.479,0,15.83
	l32.193,32.194c4.353,4.353,11.476,4.353,15.829,0l25.78-25.778C424.441,107.029,407.235,91.878,388.148,79.356z"/>
<path style="fill:#7D868C;" d="M55.032,106.57c-4.354-4.351-4.354-11.476,0-15.83l32.192-32.192c4.354-4.353,11.477-4.353,15.83,0
	l43.514,43.511c4.352,4.353,4.352,11.479,0,15.83l-32.193,32.194c-4.352,4.353-11.476,4.353-15.829,0L55.032,106.57z"/>
<path style="opacity:0.2;enable-background:new    ;" d="M116.619,128.184c-2.059,0-4.119-0.785-5.691-2.358L79.289,94.186
	c-3.143-3.143-3.142-8.239,0-11.381c3.143-3.143,8.239-3.142,11.382,0.001l31.638,31.64c3.143,3.143,3.142,8.239-0.001,11.381
	C120.738,127.399,118.678,128.184,116.619,128.184z"/>
<path style="opacity:0.2;enable-background:new    ;" d="M146.567,102.06l-22.709-22.708
	c-19.089,12.523-36.293,27.673-51.097,44.949l25.782,25.782c4.353,4.353,11.476,4.353,15.829,0l32.193-32.194
	C150.919,113.539,150.919,106.413,146.567,102.06z"/>
<path style="fill:#009BDE;" d="M325.976,24.837c0-9.234-7.555-16.789-16.789-16.789H202.822c-9.235,0-16.79,7.555-16.79,16.789
	v62.688c0,9.234,7.555,16.789,16.79,16.789h106.365c9.234,0,16.789-7.555,16.789-16.789V24.837z"/>
<path style="opacity:0.2;enable-background:new    ;" d="M256.004,88.881c-4.445,0-8.048-3.602-8.048-8.048V36.09
	c0-4.446,3.603-8.048,8.048-8.048c4.446,0,8.048,3.602,8.048,8.048v44.743C264.052,85.279,260.449,88.881,256.004,88.881z"/>
<path style="opacity:0.2;enable-background:new    ;" d="M217.202,88.881c-4.445,0-8.048-3.602-8.048-8.048V36.09
	c0-4.446,3.603-8.048,8.048-8.048c4.445,0,8.048,3.602,8.048,8.048v44.743C225.25,85.279,221.647,88.881,217.202,88.881z"/>
<path style="opacity:0.2;enable-background:new    ;" d="M294.806,88.881c-4.446,0-8.048-3.602-8.048-8.048V36.09
	c0-4.446,3.602-8.048,8.048-8.048c4.446,0,8.048,3.602,8.048,8.048v44.743C302.853,85.279,299.251,88.881,294.806,88.881z"/>
<path style="opacity:0.2;enable-background:new    ;" d="M256.001,39.952c-24.335,0-47.821,3.617-69.969,10.32v37.253
	c0,9.234,7.555,16.789,16.79,16.789h106.365c9.234,0,16.789-7.555,16.789-16.789v-37.25
	C303.828,43.57,280.339,39.952,256.001,39.952z"/>
<circle style="fill:#333E48;" cx="256.001" cy="281.184" r="222.767"/>
<circle style="fill:#FFFFFF;" cx="256.001" cy="281.184" r="172.88"/>
<path style="opacity:0.2;enable-background:new    ;" d="M256.001,108.306c-95.48,0-172.88,77.403-172.88,172.879
	c0,95.48,77.401,172.881,172.88,172.881c95.479,0,172.88-77.403,172.88-172.881C428.882,185.708,351.48,108.306,256.001,108.306z
	 M256.001,438.147c-86.688,0-156.962-70.275-156.962-156.962s70.275-156.962,156.962-156.962
	c86.688,0,156.962,70.275,156.962,156.962S342.689,438.147,256.001,438.147z"/>
<path style="fill:#009BDE;" d="M256.001,298.352c-4.394,0-8.788-1.677-12.141-5.029c-6.704-6.704-6.704-17.576,0-24.28
	l72.416-72.416c6.704-6.704,17.576-6.704,24.28,0c6.704,6.704,6.704,17.576,0,24.28l-72.414,72.416
	C264.789,296.676,260.395,298.352,256.001,298.352z"/>
<g>
	<path style="fill:#7D868C;" d="M256.005,183.436c-4.445,0-8.048-3.602-8.048-8.048v-38.089c0-4.446,3.603-8.048,8.048-8.048
		s8.049,3.602,8.049,8.048v38.089C264.053,179.834,260.449,183.436,256.005,183.436z"/>
	<path style="fill:#7D868C;" d="M150.203,289.231h-38.089c-4.445,0-8.048-3.602-8.048-8.048s3.603-8.048,8.048-8.048h38.089
		c4.445,0,8.048,3.602,8.048,8.048S154.648,289.231,150.203,289.231z"/>
	<path style="fill:#7D868C;" d="M255.996,433.12c-4.445,0-8.048-3.602-8.048-8.048v-38.087c0-4.446,3.603-8.048,8.048-8.048
		c4.446,0,8.048,3.602,8.048,8.048v38.087C264.044,429.516,260.442,433.12,255.996,433.12z"/>
	<path style="fill:#7D868C;" d="M399.887,289.237h-38.088c-4.446,0-8.048-3.602-8.048-8.048c0-4.446,3.602-8.048,8.048-8.048h38.088
		c4.446,0,8.048,3.602,8.048,8.048C407.935,285.635,404.333,289.237,399.887,289.237z"/>
</g>
<path style="fill:#1E252B;" d="M328.417,183.55c-6.736,0-13.069,2.624-17.831,7.386l-72.415,72.416
	c-4.762,4.762-7.386,11.095-7.386,17.831s2.624,13.069,7.386,17.831c4.763,4.763,11.095,7.386,17.831,7.386
	c6.735,0,13.068-2.623,17.832-7.387l72.414-72.415c9.831-9.832,9.831-25.83,0-35.662C341.485,186.173,335.153,183.55,328.417,183.55
	z M334.865,215.217l-72.413,72.415c-1.723,1.722-4.014,2.672-6.451,2.672c-2.436,0-4.727-0.949-6.449-2.672
	c-1.722-1.722-2.672-4.012-2.672-6.449s0.949-4.727,2.671-6.449l72.416-72.416c1.722-1.722,4.012-2.672,6.449-2.672
	c2.437,0,4.727,0.95,6.449,2.672C338.422,205.873,338.422,211.66,334.865,215.217z M256.001,100.258
	c-99.764,0-180.928,81.164-180.928,180.927c0,99.765,81.164,180.929,180.928,180.929s180.928-81.165,180.928-180.929
	C436.93,181.421,355.765,100.258,256.001,100.258z M256.001,446.019c-90.889,0-164.832-73.944-164.832-164.834
	c0-90.888,73.943-164.831,164.832-164.831s164.832,73.943,164.832,164.831C420.834,372.074,346.891,446.019,256.001,446.019z
	 M436.999,137.932l25.669-25.67c3.627-3.625,5.623-8.457,5.623-13.606c0-5.15-1.996-9.982-5.621-13.607l-32.194-32.193
	c-3.626-3.625-8.458-5.621-13.606-5.621c-5.149,0-9.981,1.997-13.603,5.622l-29.64,29.638c-12.6-7.489-25.85-13.737-39.602-18.664
	V24.836C334.024,11.143,322.881,0,309.187,0H202.822c-13.695,0-24.838,11.143-24.838,24.837V63.83
	c-13.752,4.926-27.004,11.173-39.605,18.663L108.743,52.86c-3.625-3.627-8.457-5.624-13.605-5.624
	c-5.147,0-9.981,1.996-13.607,5.622L49.338,85.05c-3.625,3.626-5.622,8.458-5.622,13.607s1.997,9.982,5.622,13.605l25.666,25.666
	c-32.284,40.625-49.818,90.591-49.818,143.258c0,61.653,24.009,119.616,67.604,163.211s101.557,67.604,163.21,67.604
	s119.615-24.009,163.21-67.604s67.604-101.557,67.604-163.211C486.814,228.521,469.282,178.556,436.999,137.932z M414.649,64.238
	c0.788-0.788,1.73-0.907,2.22-0.907c0.493,0,1.437,0.118,2.226,0.909l32.192,32.192c0.79,0.789,0.908,1.732,0.908,2.224
	c0,0.491-0.117,1.434-0.908,2.222l-24.761,24.761c-2.376-2.599-4.809-5.158-7.315-7.664c-9.882-9.881-20.507-18.745-31.74-26.561
	L414.649,64.238z M194.08,24.837c0-4.82,3.922-8.741,8.742-8.741h106.365c4.82,0,8.741,3.921,8.741,8.741V58.73
	c-19.915-5.511-40.702-8.357-61.927-8.357c-21.223,0-42.008,2.846-61.921,8.356V24.837z M60.719,100.878
	c-0.789-0.788-0.907-1.73-0.907-2.221c0-0.493,0.118-1.436,0.908-2.224l32.191-32.191c0.791-0.791,1.734-0.91,2.227-0.91
	c0.49,0,1.433,0.118,2.222,0.909l27.174,27.172c-11.234,7.818-21.861,16.682-31.743,26.565c-2.505,2.506-4.938,5.063-7.312,7.662
	L60.719,100.878z M256.001,495.904c-118.396,0-214.718-96.323-214.718-214.719c0-118.395,96.322-214.717,214.718-214.717
	s214.718,96.322,214.718,214.717C470.718,399.581,374.396,495.904,256.001,495.904z"/>
</svg>